#!OML:ASF I:\Actors\actors\Patient Classification 2\Patient 1\Session 1\actor1.ASF
:FULLY-SPECIFIED
:DEGREES
234
root -1.36504 17.9417 5.87648 -3.33122 2.01997 -5.99567
lowerback 10.6513 0.292125 4.81006
upperback 2.68304 1.02065 2.93074
thorax -3.14103 0.483456 0.207234
lowerneck -20.663 -4.71832 -4.05089
upperneck 28.5338 -5.56548 0.59687
head 13.1605 -2.79812 -0.0431923
rclavicle 1.69464e-014 1.11319e-014
rhumerus -47.236 21.7699 -71.2815
rradius 60.0953
rwrist 0.0688727
rhand -6.37698 -29.76
rfingers 7.12502
rthumb 19.4699 -58.8052
lclavicle 1.69464e-014 1.11319e-014
lhumerus -49.2551 -20.7421 81.4835
lradius 54.7606
lwrist 20.6836
lhand -1.16358 -20.0107
lfingers 7.12502
lthumb 24.4754 8.44546
rfemur 20.3861 -4.6094 22.2314
rtibia -12.885
rfoot -11.9374 -12.5708
rtoes 5.78714
lfemur 24.4945 -4.2483 -9.35624
ltibia -27.0182
lfoot 4.51842 14.8889
ltoes -18.5666
235
root -1.35553 17.9378 5.87305 -3.48391 2.45641 -6.04905
lowerback 10.8388 0.36112 4.98377
upperback 2.81909 1.14054 2.99633
thorax -3.09632 0.544627 0.161562
lowerneck -20.5881 -4.89111 -4.21829
upperneck 29.3824 -5.73728 0.481006
head 13.5077 -2.90372 -0.10052
rclavicle 5.66536e-015 1.19271e-014
rhumerus -45.9238 24.1861 -69.2012
rradius 60.2219
rwrist -0.34372
rhand -5.02653 -30.6027
rfingers 7.12502
rthumb 20.7679 -59.5113
lclavicle 5.66536e-015 1.19271e-014
lhumerus -50.5899 -24.1505 81.3377
lradius 56.7302
lwrist 22.8785
lhand -1.37912 -21.1465
lfingers 7.12502
lthumb 24.2688 7.33743
rfemur 20.8338 -5.14314 22.0448
rtibia -13.328
rfoot -11.3794 -12.4317
rtoes 5.03382
lfemur 24.6787 -3.83941 -9.18885
ltibia -27.4208
lfoot 5.03408 14.2121
ltoes -19.2631
236
root -1.34681 17.9354 5.86463 -3.6233 2.91443 -6.2055
lowerback 11.0968 0.43056 5.25387
upperback 2.9678 1.27901 3.11447
thorax -3.07471 0.614521 0.113389
lowerneck -20.5564 -5.08575 -4.42127
upperneck 30.1461 -5.93675 0.405653
head 13.8388 -3.01914 -0.142662
rclavicle 9.64106e-015 1.59028e-015
rhumerus -44.458 26.8263 -67.0498
rradius 60.154
rwrist -1.19206
rhand -4.49003 -30.7116
rfingers 7.12502
rthumb 21.2833 -59.563
lclavicle 9.64106e-015 1.59028e-015
lhumerus -51.9046 -27.3554 81.2026
lradius 59.0031
lwrist 25.0632
lhand -1.37349 -21.0881
lfingers 7.12502
lthumb 24.2742 7.39512
rfemur 21.2248 -5.60106 21.9781
rtibia -13.7343
rfoot -10.7297 -12.25
rtoes 3.70896
lfemur 24.8577 -3.36332 -8.88142
ltibia -27.92
lfoot 5.8513 13.6028
ltoes -19.771
237
root -1.33831 17.9329 5.8526 -3.74599 3.3597 -6.36403
lowerback 11.4136 0.511279 5.5386
upperback 3.11126 1.44004 3.22388
thorax -3.08825 0.694956 0.0437277
lowerneck -20.3645 -5.25276 -4.45684
upperneck 30.6253 -6.11917 0.216434
head 14.0048 -3.12636 -0.247175
rclavicle 1.78906e-015 2.82274e-014
rhumerus -42.9746 29.5374 -64.9304
rradius 60.018
rwrist -2.53885
rhand -3.75149 -30.7651
rfingers 7.12502
rthumb 21.9926 -59.5348
lclavicle 1.78906e-015 2.82274e-014
lhumerus -53.2428 -30.3034 81.0869
lradius 61.2545
lwrist 26.9268
lhand -1.78761 -21.3644
lfingers 7.12502
lthumb 23.8771 7.17136
rfemur 21.6064 -5.80806 21.9495
rtibia -14.1573
rfoot -10.1071 -12.057
rtoes 2.79405
lfemur 25.0488 -2.92037 -8.5878
ltibia -28.5181
lfoot 6.95555 13.1296
ltoes -19.998
238
root -1.32198 17.9312 5.83034 -3.82405 3.66984 -6.51545
lowerback 11.8401 0.638421 5.94521
upperback 3.23544 1.68835 3.32001
thorax -3.17273 0.816261 -0.122478
lowerneck -20.0304 -5.4584 -4.5916
upperneck 30.9124 -6.35559 0.117203
head 14.0669 -3.25726 -0.302285
rclavicle -5.81445e-015 -1.98785e-015
rhumerus -41.5151 32.1746 -62.8335
rradius 59.8625
rwrist -4.42766
rhand -2.62064 -30.6795
rfingers 7.12502
rthumb 23.078 -59.3175
lclavicle -5.81445e-015 -1.98785e-015
lhumerus -54.6066 -32.9427 81.0742
lradius 63.4851
lwrist 28.6123
lhand -2.91759 -22.1386
lfingers 7.12502
lthumb 22.7931 6.5348
rfemur 21.8876 -5.86562 21.8788
rtibia -14.5887
rfoot -9.31103 -11.7908
rtoes 2.06777
lfemur 25.2065 -2.58093 -8.38833
ltibia -29.1605
lfoot 7.88466 12.804
ltoes -20.3302
239
root -1.2895 17.9321 5.79305 -3.78804 3.77352 -6.5971
lowerback 12.373 0.822159 6.55418
upperback 3.32665 2.04886 3.35844
thorax -3.33112 0.989256 -0.482143
lowerneck -19.664 -5.70729 -4.88369
upperneck 31.105 -6.65541 0.180124
head 14.0976 -3.41124 -0.275232
rclavicle 3.24019e-014 8.74653e-015
rhumerus -40.1448 34.7497 -60.8009
rradius 59.7637
rwrist -6.91278
rhand -1.1175 -30.3449
rfingers 7.12502
rthumb 24.5196 -58.7951
lclavicle 3.24019e-014 8.74653e-015
lhumerus -56.0641 -35.3502 81.2727
lradius 65.7892
lwrist 30.5763
lhand -4.81427 -23.4196
lfingers 7.12502
lthumb 20.9719 5.46657
rfemur 21.9658 -6.07328 21.6014
rtibia -15.0746
rfoot -8.06921 -11.3458
rtoes 1.27658
lfemur 25.2521 -2.33311 -8.39432
ltibia -29.8143
lfoot 8.58801 12.7325
ltoes -20.9097
240
root -1.27773 17.927 5.77152 -3.87233 4.38428 -6.60992
lowerback 12.7488 0.887698 6.82952
upperback 3.49212 2.19887 3.42869
thorax -3.34583 1.06499 -0.590261
lowerneck -19.2977 -5.93189 -5.00796
upperneck 31.2667 -6.95965 0.182477
head 14.1047 -3.55595 -0.299731
rclavicle -1.72943e-014 -1.86858e-014
rhumerus -38.9479 37.1693 -58.9993
rradius 59.7104
rwrist -9.5387
rhand 0.968667 -29.7794
rfingers 7.12502
rthumb 26.5179 -57.9436
lclavicle -1.72943e-014 -1.86858e-014
lhumerus -57.6677 -37.5438 81.6765
lradius 68.1248
lwrist 32.8075
lhand -7.35196 -24.9563
lfingers 7.12502
lthumb 18.5323 4.18095
rfemur 22.356 -6.25986 21.4164
rtibia -15.6116
rfoot -7.3719 -11.2392
rtoes 0.401668
lfemur 25.3552 -2.29687 -8.38503
ltibia -30.4512
lfoot 9.31171 12.3373
ltoes -21.466
241
root -1.26558 17.9198 5.74907 -3.93126 4.96289 -6.63157
lowerback 13.1661 0.955068 7.13811
upperback 3.63215 2.36264 3.48037
thorax -3.40507 1.14574 -0.740588
lowerneck -18.9746 -6.14058 -5.09111
upperneck 31.4877 -7.27756 0.248934
head 14.1491 -3.69154 -0.309996
rclavicle 3.50855e-014 1.59028e-014
rhumerus -37.8614 39.3453 -57.5247
rradius 59.5109
rwrist -11.9854
rhand 3.64642 -29.1178
rfingers 7.12502
rthumb 29.0781 -56.8681
lclavicle 3.50855e-014 1.59028e-014
lhumerus -59.2774 -39.3044 82.1554
lradius 70.343
lwrist 34.9825
lhand -9.93203 -26.3842
lfingers 7.12502
lthumb 16.0491 2.97109
rfemur 22.7227 -6.40133 21.2662
rtibia -16.19
rfoot -6.71583 -11.1852
rtoes -0.54792
lfemur 25.4374 -2.32548 -8.38553
ltibia -31.0682
lfoot 9.96471 12.0726
ltoes -21.2497
242
root -1.25761 17.9129 5.72696 -3.94429 5.57565 -6.7147
lowerback 13.5625 1.01506 7.47311
upperback 3.74287 2.52353 3.5475
thorax -3.48126 1.22393 -0.889853
lowerneck -18.6511 -6.35119 -5.19352
upperneck 31.7307 -7.62361 0.402347
head 14.2102 -3.82869 -0.287509
rclavicle 1.32192e-014 -3.97569e-015
rhumerus -37.0827 41.2935 -56.4727
rradius 59.3405
rwrist -14.6562
rhand 6.31789 -28.5448
rfingers 7.12502
rthumb 31.6262 -55.825
lclavicle 1.32192e-014 -3.97569e-015
lhumerus -60.6403 -40.521 82.5447
lradius 72.2863
lwrist 36.9534
lhand -11.7718 -27.6145
lfingers 7.12502
lthumb 14.2769 1.87475
rfemur 23.0111 -6.53966 21.2266
rtibia -16.7435
rfoot -6.17172 -11.2043
rtoes -1.08769
lfemur 25.4304 -2.49521 -8.33703
ltibia -31.6511
lfoot 10.5871 11.8963
ltoes -21.0712
